<?xml version="1.0" encoding="utf-8"?>
<svg version="1.1" id="logo" xmlns="http://www.w3.org/2000/svg" xmlns:xlink="http://www.w3.org/1999/xlink" x="0px" y="0px"
	 viewBox="63.7 0 124.6 144">
<style>
path{
  fill: #f4d03f;
  }
</style>
<title>Md. Mahafuzur Rahaman</title>
<path d="M126,0L63.7,36v72l62.3,36l62.3-36V36L126,0z M185.5,106.4L126,140.8l-59.5-34.4V37.6L126,3.2l59.5,34.4V106.4z
	 M126.7,136.6l49.5-28.6h-99L126.7,136.6z"/>
<path d="M152.9,36.8h-4.8l-7,6.9c-6.8-7.8-18.7-8.5-26.4-1.7c-0.6,0.6-1.2,1.2-1.8,1.8l-7.3-7.2l-4.9,0.2H97V91h8.6L122,74.4
	l0.8,0.1v17.5h8.2V74.5h0.7L148.1,91h7.9V36.9L152.9,36.8L152.9,36.8z M137,47.5l-6.1,6V43.4C133.3,44.3,135.3,45.7,137,47.5z
	 M140.5,56.2c0,4-1.8,7.8-4.9,10.3l-2.8-2.8l7.8-7.8C140.5,56,140.5,56.1,140.5,56.2L140.5,56.2z M113.8,56.3l7.3,7.3l-2.6,2.6
	C115.6,63.8,113.9,60.2,113.8,56.3z M122.7,43.4V54l-6.2-6.2C118.1,45.7,120.2,44.2,122.7,43.4z M105.2,79.2v-31l3.5,3.3
	c-0.4,1.5-0.5,3.1-0.5,4.7c-0.1,5.3,2.2,10.5,6.2,14L105.2,79.2z M147.9,79.1l-8.6-8.7c4.2-3.5,6.6-8.7,6.6-14.2
	c0-1.7-0.3-3.4-0.8-5l2.8-2.9L147.9,79.1L147.9,79.1z"/>
</svg>
